HIERARCHY
ROOT hip
{
	OFFSET 0.000000 0.000000 0.000000 
	CHANNELS 6 Xposition Yposition Zposition Xrotation Zrotation Yrotation
	JOINT abdomen
	{
		OFFSET 0.000000 3.402643 0.000000 
		CHANNELS 3 Xrotation Zrotation Yrotation
		JOINT chest
		{
			OFFSET 0.000000 8.438565 -0.680529 
			CHANNELS 3 Xrotation Zrotation Yrotation
			JOINT neck
			{
				OFFSET 0.000000 10.207942 -0.272212 
				CHANNELS 3 Xrotation Zrotation Yrotation
				JOINT head
				{
					OFFSET 0.000000 3.130431 0.000000 
					CHANNELS 3 Xrotation Zrotation Yrotation
					End Site
					{
						OFFSET 0.000000 3.130435 0.000000 
					}
				}
			}
			JOINT lCollar
			{
				OFFSET 3.470700 6.669187 -0.816635 
				CHANNELS 3 Yrotation Zrotation Xrotation
				JOINT lShldr
				{
					OFFSET 3.198488 0.000000 0.000000 
					CHANNELS 3 Zrotation Yrotation Xrotation
					JOINT lForeArm
					{
						OFFSET 10.139888 0.000000 0.000000 
						CHANNELS 3 Yrotation Zrotation Xrotation
						JOINT lHand
						{
							OFFSET 8.370511 0.000000 0.000000 
							CHANNELS 3 Zrotation Yrotation Xrotation
							End Site
							{
								OFFSET 4.083176 0.000000 0.000000 
							}
						}
					}
				}
			}
			JOINT rCollar
			{
				OFFSET -3.470700 6.669187 -0.816635 
				CHANNELS 3 Yrotation Zrotation Xrotation
				JOINT rShldr
				{
					OFFSET -3.198488 0.000000 0.000000 
					CHANNELS 3 Zrotation Yrotation Xrotation
					JOINT rForeArm
					{
						OFFSET -10.139888 0.000000 0.000000 
						CHANNELS 3 Yrotation Zrotation Xrotation
						JOINT rHand
						{
							OFFSET -8.370511 0.000000 0.000000 
							CHANNELS 3 Zrotation Yrotation Xrotation
							End Site
							{
								OFFSET -4.083176 0.000000 0.000000 
							}
						}
					}
				}
			}
		}
	}
	JOINT lThigh
	{
		OFFSET 5.308129 -1.633274 1.361059 
		CHANNELS 3 Xrotation Zrotation Yrotation
		JOINT lShin
		{
			OFFSET -2.041588 -20.007561 0.000000 
			CHANNELS 3 Xrotation Zrotation Yrotation
			JOINT lFoot
			{
				OFFSET 0.000000 -19.190928 -1.224953 
				CHANNELS 3 Xrotation Yrotation Zrotation
				End Site
				{
					OFFSET 0.000000 -2.449906 4.627600 
				}
			}
		}
	}
	JOINT rThigh
	{
		OFFSET -5.308129 -1.633274 1.361059 
		CHANNELS 3 Xrotation Zrotation Yrotation
		JOINT rShin
		{
			OFFSET 2.041588 -20.007561 0.000000 
			CHANNELS 3 Xrotation Zrotation Yrotation
			JOINT rFoot
			{
				OFFSET 0.000000 -19.190928 -1.224953 
				CHANNELS 3 Xrotation Yrotation Zrotation
				End Site
				{
					OFFSET 0.000000 -2.449906 4.627600 
				}
			}
		}
	}
}
MOTION
Frames: 8
Frame Time: 0.033333
-1.413275 51.245411 -2.076105 1.497548 0.869134 0.224732 0.000000 0.000000 0.000000 0.588080 -0.322259 -0.380908 8.939451 -0.419153 3.466847 23.585310 -1.081910 3.545395 -6.699369 -10.036111 0.561344 -61.859173 1.180682 17.609455 -38.698853 -8.348637 16.750244 10.272449 18.358353 -2.351797 5.411313 16.291357 0.341909 52.137283 -9.790501 18.370348 41.076935 8.574208 18.395370 -21.350252 -9.895669 -2.369354 -7.515812 8.022671 5.471730 18.191351 -3.847967 4.903199 -10.794005 0.518721 -5.410218 -5.331494 -10.906594 -7.695799 17.528723 1.842445 -15.311080 -9.737420 -0.910244 10.515204 
-1.438891 51.248943 -2.092577 1.639602 0.986289 0.507905 0.000000 0.000000 0.000000 0.537169 -0.351563 -0.009825 8.873288 -0.301844 4.394573 24.182501 -1.285569 4.219658 -6.140610 -9.754086 0.533240 -62.348991 1.065817 17.479919 -38.534954 -8.235088 16.860373 10.358469 18.011408 -2.367578 5.716923 16.064552 0.301726 52.460114 -10.121265 18.417078 40.889183 8.474303 18.704000 -21.082113 -9.935538 -2.385667 -7.631720 7.943078 5.442018 17.995203 -3.935769 4.710424 -10.629752 0.494221 -5.333361 -5.505888 -10.990499 -7.711826 17.650148 1.852902 -15.653489 -9.796309 -0.915890 10.535836 
-1.480208 51.250896 -2.135725 1.737892 0.898234 1.220859 0.000000 0.000000 0.000000 0.545585 -0.244137 0.302732 8.910837 0.048612 5.390632 24.622131 -1.323207 4.932803 -5.884140 -9.345631 0.571755 -62.652210 0.793174 17.528427 -38.438705 -8.146514 16.983387 9.653436 18.047552 -2.458298 5.918175 16.252150 0.310929 52.453712 -10.492484 18.318674 40.877377 8.397820 18.734215 -21.129282 -9.959209 -2.378973 -7.906425 8.110713 5.451261 18.013546 -4.003761 3.959231 -10.519438 0.478753 -5.209437 -5.475955 -10.851956 -7.709850 17.599258 1.861641 -16.357512 -9.736396 -0.935325 10.621961 
-1.501693 51.241642 -2.174834 1.957599 1.005292 1.924217 0.000000 0.000000 0.000000 0.467492 -0.175777 0.410154 9.002765 -0.009699 6.708985 24.411564 -1.388516 6.124792 -5.668800 -9.736085 0.493724 -62.194145 0.795638 17.455490 -38.897713 -8.176167 15.873247 12.671481 18.490057 -2.011897 6.143955 16.050611 0.240131 52.394077 -10.329820 18.618793 40.510963 8.678300 18.046736 -21.077457 -10.011566 -2.365739 -8.308702 7.908100 5.167711 17.957573 -3.916440 3.557226 -10.333020 0.466203 -5.180590 -5.712214 -10.954311 -7.744822 17.873960 1.842686 -16.998404 -9.879770 -0.937557 10.743665 
-1.544661 51.243656 -2.206664 2.107167 1.004779 2.656697 0.000000 0.000000 0.000000 0.380613 -0.019530 0.722656 9.412452 0.125682 8.115257 23.901148 -1.956853 7.259941 -5.407958 -10.057512 0.406103 -61.832096 0.943922 17.477064 -39.171200 -8.065299 16.616316 9.855836 18.237337 -2.406563 6.412763 16.217587 0.150679 52.084232 -10.866321 18.648348 40.839596 8.637439 18.161894 -20.931910 -9.174389 -2.521496 -8.579304 7.895350 5.030087 17.884649 -3.866461 2.907126 -10.218987 0.454670 -5.109014 -5.759511 -10.873016 -7.741750 17.908501 1.815678 -17.771736 -9.870640 -0.959058 10.894856 
-1.541511 51.247326 -2.206512 2.075182 1.316324 3.184547 0.000000 0.000000 0.000000 0.418041 -0.097638 1.103514 9.843294 0.173399 9.443404 23.505884 -2.260922 8.355777 -5.033087 -10.095705 0.425497 -61.859837 1.021300 17.591509 -39.320171 -8.044117 16.861946 8.975215 17.770857 -2.559970 6.724041 16.144857 0.190571 51.970592 -10.706369 19.025351 40.393600 8.931370 17.525177 -21.702826 -9.902796 -2.343129 -8.450292 7.454032 4.729635 17.491350 -3.807117 2.778466 -9.976247 0.454828 -5.062454 -5.662357 -11.263725 -8.007257 18.171989 1.897080 -17.930126 -10.055706 -0.995754 10.936491 
-1.536462 51.255272 -2.111060 1.322685 1.452154 3.634119 0.000000 0.000000 0.000000 0.957770 0.029288 1.445317 10.459125 0.153452 10.859440 22.993956 -2.264062 9.411549 -4.499413 -10.473752 0.931741 -61.480652 0.971735 17.288034 -39.416515 -7.973412 17.400503 8.311425 17.663435 -2.652557 6.946918 16.263063 0.684643 51.550049 -10.514613 19.426901 40.981773 9.110272 17.853308 -20.847887 -9.385059 -2.493039 -7.536954 7.351123 4.805108 17.256075 -3.797141 2.310047 -9.902379 0.459508 -5.005207 -4.597752 -11.427261 -8.429220 18.074131 1.971810 -17.914988 -10.201660 -1.005787 10.989794 
-1.558301 51.265579 -2.120546 1.355708 1.363096 4.434892 0.000000 0.000000 0.000000 1.023733 0.273317 1.699246 10.606149 -0.380765 12.900619 22.432590 0.057606 10.537124 -4.177402 -10.297988 1.000920 -61.556602 0.840389 17.202972 -39.563423 -7.940742 16.203821 7.603851 18.357899 -2.708206 7.138950 16.406988 0.724281 51.412674 -10.446141 19.336632 41.220303 9.135334 17.612469 -20.957462 -9.371563 -2.481100 -7.680402 7.435632 4.746397 17.195307 -3.818657 1.572129 -9.781274 0.423438 -4.859061 -4.324841 -11.273291 -8.473200 17.831467 1.962856 -18.701586 -10.093642 -1.023259 11.118610 
